<?xml version="1.0" standalone="no"?>
<!DOCTYPE svg PUBLIC "-//W3C//DTD SVG 20010904//EN"
 "http://www.w3.org/TR/2001/REC-SVG-20010904/DTD/svg10.dtd">
<svg version="1.0" xmlns="http://www.w3.org/2000/svg"
 width="20.000000pt" height="20.000000pt" viewBox="0 0 20.000000 20.000000"
 preserveAspectRatio="xMidYMid meet">
<metadata>
Created by potrace 1.16, written by Peter Selinger 2001-2019
</metadata>
<g transform="translate(0.000000,20.000000) scale(0.003906,-0.003906)"
fill="#000000" stroke="none">
<path d="M3049 5105 c-671 -105 -1226 -572 -1438 -1210 -75 -225 -86 -297 -85
-575 0 -216 2 -257 22 -349 61 -278 175 -533 326 -729 31 -40 56 -76 56 -80 0
-4 -67 -74 -148 -155 l-149 -149 -58 17 c-42 13 -84 16 -159 13 -89 -3 -110
-8 -171 -36 -66 -31 -101 -64 -621 -585 -654 -654 -619 -608 -619 -817 0 -120
1 -128 32 -193 43 -90 126 -173 218 -218 68 -33 73 -34 195 -34 208 0 165 -32
799 599 334 332 548 553 572 591 22 32 47 83 55 112 20 70 20 198 -1 269 l-17
57 149 149 c81 81 151 148 156 148 4 0 35 -22 70 -49 232 -183 555 -313 870
-352 124 -15 422 -7 540 15 406 76 786 294 1044 598 201 236 337 515 403 823
28 129 38 438 20 582 -100 801 -724 1438 -1525 1558 -124 18 -416 18 -536 0z
m501 -310 c312 -47 601 -196 831 -429 205 -207 344 -467 406 -756 26 -123 26
-460 -1 -580 -29 -135 -72 -256 -131 -375 -222 -443 -653 -751 -1142 -816
-124 -16 -393 -6 -504 20 -299 68 -522 192 -740 410 -221 222 -348 454 -415
761 -27 122 -27 458 0 580 65 298 201 550 411 761 341 343 804 496 1285 424z
m-2033 -3235 c18 -10 39 -33 48 -49 18 -35 20 -103 4 -134 -16 -31 -1018
-1035 -1051 -1053 -35 -18 -101 -18 -139 1 -61 32 -89 129 -55 193 17 30 1020
1034 1051 1051 33 17 107 13 142 -9z"/>
<path d="M2335 3900 c-40 -26 -65 -75 -65 -129 0 -33 57 -196 231 -659 126
-339 236 -624 244 -635 41 -59 146 -77 211 -36 43 26 52 47 220 497 76 204
141 372 145 372 3 0 70 -172 148 -382 79 -211 152 -402 163 -425 26 -57 71
-83 139 -83 56 0 97 19 124 57 8 11 118 296 244 635 248 660 253 679 212 742
-31 46 -70 66 -130 66 -68 0 -113 -26 -139 -83 -11 -23 -84 -214 -163 -424
-78 -211 -145 -383 -148 -383 -4 0 -69 168 -145 373 -77 204 -150 395 -163
424 -31 67 -71 93 -143 93 -67 0 -112 -27 -138 -83 -11 -23 -84 -214 -163
-424 -78 -211 -145 -383 -148 -383 -4 0 -69 168 -145 373 -168 449 -177 470
-220 496 -45 28 -130 28 -171 1z"/>
</g>
</svg>
